<svg xmlns="http://www.w3.org/2000/svg" enable-background="new 0 0 47.5 47.5" viewBox="0 0 47.5 47.5" id="love"><defs><clipPath id="a"><path d="M0 38h38V0H0v38Z"></path></clipPath></defs><g clip-path="url(#a)" transform="matrix(1.25 0 0 -1.25 0 47.5)"><path fill="#e75a70" d="M0 0a6.8 6.8 0 0 1-6.801 6.801 6.788 6.788 0 0 1-5.526-2.845 6.79 6.79 0 0 1-5.526 2.845A6.8 6.8 0 0 1-24.654 0c0-.531.067-1.049.183-1.545.945-5.867 7.468-12.059 12.144-13.758 4.675 1.699 11.2 7.891 12.141 13.756A6.65 6.65 0 0 1 0 0" transform="translate(25.77 17.285)"></path><path fill="#e75a70" d="M0 0a4.71 4.71 0 0 1-4.711 4.711 4.702 4.702 0 0 1-3.828-1.972 4.703 4.703 0 0 1-3.827 1.972A4.71 4.71 0 0 1-17.077 0c0-.369.047-.727.127-1.07.654-4.065 5.173-8.353 8.411-9.53C-5.301-9.423-.781-5.135-.127-1.071-.047-.727 0-.369 0 0" transform="translate(36.885 31.307)"></path></g></svg>